{"title":"The Block - S12E31 - Kitchen Week Chaos","uid":16014506,"size":1141724628,"categoryP":"video","categoryS":"tv_shows","magnet":"?xt=urn:btih:2eb731a503eea14e79249693841ab6e0dd940742&amp;dn=The+Block+-+S12E31+-+Kitchen+Week+Chaos&amp;tr=udp%3A%2F%2Ftracker.leechers-paradise.org%3A6969&amp;tr=udp%3A%2F%2Fzer0day.ch%3A1337&amp;tr=udp%3A%2F%2Fopen.demonii.com%3A1337&amp;tr=udp%3A%2F%2Ftracker.coppersurfer.tk%3A6969&amp;tr=udp%3A%2F%2Fexodus.desync.com%3A6969","seeders":8,"leechers":1,"uploader":"Bullrout","files":1,"time":1476275550,"description":"The Block - S12E31 - Kitchen Week Chaos\r\n\r\nKitchen week gets the better of the contestants and budgets are drying up. Designs take shape as installation begins but some teams aren't happy with the outcome.\r\n\r\nComplete name                            : The Block - S12E31 - Kitchen Week Chaos.mkv\r\nFormat                                   : Matroska\r\nFormat version                           : Version 4 / Version 2\r\nFile size                                : 1.06 GiB\r\nDuration                                 : 46 min 11 s\r\nOverall bit rate mode                    : Variable\r\nOverall bit rate                         : 3 296 kb/s\r\nEncoded date                             : UTC 2016-10-12 10:23:43\r\nWriting application                      : mkvmerge v9.4.2 ('So High') 64bit\r\nWriting library                          : libebml v1.3.4 + libmatroska v1.4.5\r\n\r\nVideo\r\nID                                       : 2\r\nFormat                                   : AVC\r\nFormat/Info                              : Advanced Video Codec\r\nFormat profile                           :   \r\nFormat settings, CABAC                   : Yes\r\nFormat settings, ReFrames                : 3 frames\r\nCodec ID                                 : V_MPEG4/ISO/AVC\r\nDuration                                 : 46 min 11 s\r\nBit rate mode                            : Variable\r\nBit rate                                 : 2 910 kb/s\r\nMaximum bit rate                         : 3 000 kb/s\r\nWidth                                    : 1 280 pixels\r\nHeight                                   : 720 pixels\r\nDisplay aspect ratio                     : 16:9\r\nFrame rate mode                          : Constant\r\nFrame rate                               : 25.000 FPS\r\nStandard                                 : PAL\r\nColor space                              : YUV\r\nChroma subsampling                       : 4:2:0\r\nBit depth                                : 8 bits\r\nScan type                                : Progressive\r\nBits/(Pixel*Frame)                       : 0.126\r\nStream size                              : 961 MiB (88%)\r\nWriting library                          : x264 core 112\r\nDefault                                  : Yes\r\nForced                                   : No\r\nColor range                              : Limited\r\nColor primaries                          : BT.709\r\nTransfer characteristics                 : BT.709\r\nMatrix coefficients                      : BT.709\r\n\r\nAudio\r\nID                                       : 1\r\nFormat                                   : AC-3\r\nFormat/Info                              : Audio Coding 3\r\nMode extension                           : CM (complete main)\r\nFormat settings, Endianness              : Big\r\nCodec ID                                 : A_AC3\r\nDuration                                 : 46 min 11 s\r\nBit rate mode                            : Constant\r\nBit rate                                 : 384 kb/s\r\nChannel(s)                               : 6 channels\r\nChannel positions                        : Front: L C R, Side: L R, LFE\r\nSampling rate                            : 48.0 kHz\r\nFrame rate                               : 31.250 FPS (1536 spf)\r\nCompression mode                         : Lossy\r\nStream size                              : 127 MiB (12%)\r\nDefault                                  : Yes\r\nForced                                   : No","torrent":{"xt":"urn:btih:2eb731a503eea14e79249693841ab6e0dd940742","amp;dn":"The+Block+-+S12E31+-+Kitchen+Week+Chaos","amp;tr":["udp%3A%2F%2Ftracker.leechers-paradise.org%3A6969","udp%3A%2F%2Fzer0day.ch%3A1337","udp%3A%2F%2Fopen.demonii.com%3A1337","udp%3A%2F%2Ftracker.coppersurfer.tk%3A6969","udp%3A%2F%2Fexodus.desync.com%3A6969"],"infoHash":"2eb731a503eea14e79249693841ab6e0dd940742","infoHashBuffer":{"type":"Buffer","data":[46,183,49,165,3,238,161,78,121,36,150,147,132,26,182,224,221,148,7,66]},"announce":[],"urlList":[]}}